<svg xmlns="http://www.w3.org/2000/svg" viewBox="0 0 800 600" fill="none">
  <!-- Background Pattern -->
  <rect width="800" height="600" fill="#f0f8ff" opacity="0.3"/>
  
  <!-- Connection Lines -->
  <path d="M350 100L600 200" stroke="#0a66c2" stroke-opacity="0.6" stroke-width="4"/>
  <path d="M600 200L500 450" stroke="#0a66c2" stroke-opacity="0.6" stroke-width="4"/>
  <path d="M500 450L200 350" stroke="#0a66c2" stroke-opacity="0.6" stroke-width="4"/>
  <path d="M200 350L350 100" stroke="#0a66c2" stroke-opacity="0.6" stroke-width="4"/>
  <path d="M350 100L500 450" stroke="#0a66c2" stroke-opacity="0.3" stroke-width="2"/>
  <path d="M600 200L200 350" stroke="#0a66c2" stroke-opacity="0.3" stroke-width="2"/>
  
  <!-- Nodes -->
  <circle cx="350" cy="100" r="50" fill="#0a66c2" fill-opacity="0.8"/>
  <circle cx="600" cy="200" r="50" fill="#0a66c2" fill-opacity="0.8"/>
  <circle cx="200" cy="350" r="50" fill="#0a66c2" fill-opacity="0.8"/>
  <circle cx="500" cy="450" r="50" fill="#0a66c2" fill-opacity="0.8"/>
  
  <!-- Node Centers -->
  <circle cx="350" cy="100" r="20" fill="white"/>
  <circle cx="600" cy="200" r="20" fill="white"/>
  <circle cx="200" cy="350" r="20" fill="white"/>
  <circle cx="500" cy="450" r="20" fill="white"/>
  
  <!-- Decorative Elements -->
  <circle cx="400" cy="250" r="15" fill="#0a66c2" fill-opacity="0.5"/>
  <circle cx="300" cy="400" r="10" fill="#0a66c2" fill-opacity="0.5"/>
  <circle cx="450" cy="150" r="8" fill="#0a66c2" fill-opacity="0.5"/>
  <circle cx="550" cy="350" r="12" fill="#0a66c2" fill-opacity="0.5"/>
  
  <!-- Pulse Animation -->
  <circle cx="350" cy="100" r="60" fill="none" stroke="#0a66c2" stroke-width="2" opacity="0.5">
    <animate attributeName="r" values="60;80;60" dur="3s" repeatCount="indefinite"/>
    <animate attributeName="opacity" values="0.5;0;0.5" dur="3s" repeatCount="indefinite"/>
  </circle>
  <circle cx="600" cy="200" r="60" fill="none" stroke="#0a66c2" stroke-width="2" opacity="0.5">
    <animate attributeName="r" values="60;80;60" dur="4s" repeatCount="indefinite"/>
    <animate attributeName="opacity" values="0.5;0;0.5" dur="4s" repeatCount="indefinite"/>
  </circle>
  <circle cx="200" cy="350" r="60" fill="none" stroke="#0a66c2" stroke-width="2" opacity="0.5">
    <animate attributeName="r" values="60;80;60" dur="3.5s" repeatCount="indefinite"/>
    <animate attributeName="opacity" values="0.5;0;0.5" dur="3.5s" repeatCount="indefinite"/>
  </circle>
  <circle cx="500" cy="450" r="60" fill="none" stroke="#0a66c2" stroke-width="2" opacity="0.5">
    <animate attributeName="r" values="60;80;60" dur="4.5s" repeatCount="indefinite"/>
    <animate attributeName="opacity" values="0.5;0;0.5" dur="4.5s" repeatCount="indefinite"/>
  </circle>
</svg>